<svg xmlns="http://www.w3.org/2000/svg" viewBox="0 0 87.25 90.188">
  <metadata><?xpacket begin="﻿" id="W5M0MpCehiHzreSzNTczkc9d"?>
<x:xmpmeta xmlns:x="adobe:ns:meta/" x:xmptk="Adobe XMP Core 5.6-c142 79.160924, 2017/07/13-01:06:39        ">
   <rdf:RDF xmlns:rdf="http://www.w3.org/1999/02/22-rdf-syntax-ns#">
      <rdf:Description rdf:about=""/>
   </rdf:RDF>
</x:xmpmeta>
                                                                                                    
                                                                                                    
                                                                                                    
                                                                                                    
                                                                                                    
                                                                                                    
                                                                                                    
                                                                                                    
                                                                                                    
                                                                                                    
                                                                                                    
                                                                                                    
                                                                                                    
                                                                                                    
                                                                                                    
                                                                                                    
                                                                                                    
                                                                                                    
                                                                                                    
                                                                                                    
                           
<?xpacket end="w"?></metadata>
<defs>
    <style>
      .cls-1 {
        fill: #bbedff;
        fill-rule: evenodd;
      }
    </style>
  </defs>
  <path id="_" data-name="&amp;" class="cls-1" d="M692.434,648.4a72.168,72.168,0,0,0,8.581-13.652,86.4,86.4,0,0,0,5.94-15.811H687.874A73.7,73.7,0,0,1,680.493,637l-17.041-16.622q9.24-5.34,13.381-11.251a22.242,22.242,0,0,0,4.14-13.051,16.687,16.687,0,0,0-6.69-13.891q-6.692-5.189-17.852-5.19-11.7,0-18.691,5.58a17.893,17.893,0,0,0-6.991,14.7,25.6,25.6,0,0,0,2.041,10.291,38.874,38.874,0,0,0,6.54,9.871q-8.82,5.04-12.451,10.831a25.85,25.85,0,0,0-3.63,14.011q0,11.461,8.581,18.181t23.221,6.721a44.28,44.28,0,0,0,25.922-7.981l6.9,6.781H710.5Zm-47.913-14.522a25.067,25.067,0,0,1,5.49-5.52l19.921,19.8a25.829,25.829,0,0,1-13.621,3.66,15.522,15.522,0,0,1-9.93-3.06,9.937,9.937,0,0,1-3.871-8.221A11.346,11.346,0,0,1,644.521,633.876ZM661.292,604.5a35.687,35.687,0,0,1-7.921,5.671q-5.7-6.36-5.7-11.642a6.7,6.7,0,0,1,2.31-5.46,9.606,9.606,0,0,1,6.33-1.92,8.335,8.335,0,0,1,5.581,1.83,6.222,6.222,0,0,1,2.16,5.011A8.973,8.973,0,0,1,661.292,604.5Z" transform="translate(-623.25 -577)"/>
</svg>
