<?xml version="1.0" encoding="UTF-8"?>
<!DOCTYPE svg PUBLIC "-//W3C//DTD SVG 1.1//EN" "http://www.w3.org/Graphics/SVG/1.1/DTD/svg11.dtd">
<!-- Creator: CorelDRAW 2019 (64-Bit) -->
<svg xmlns="http://www.w3.org/2000/svg" xml:space="preserve" version="1.1" style="shape-rendering:geometricPrecision; text-rendering:geometricPrecision; image-rendering:optimizeQuality; fill-rule:evenodd; clip-rule:evenodd"
viewBox="0 0 20999.98 21000.16"
 xmlns:xlink="http://www.w3.org/1999/xlink">
 <defs>
  <style type="text/css">
   <![CDATA[
    .fil0 {fill:#6D6E71}
   ]]>
  </style>
 </defs>
 <g id="Слой_x0020_1">
  <metadata id="CorelCorpID_0Corel-Layer"/>
  <g id="_1823972760432">
   <g>
    <path class="fil0" d="M2491.72 14542.53c-3322.32,-3322.4 -3322.25,-8728.34 0,-12050.73 3322.4,-3322.4 8728.27,-3322.4 12050.58,0 2818.59,2818.59 3245.49,7010.56 1281.79,10284.05 0,0 -141.06,236.64 49.45,427.02 1086.8,1086.75 4347.42,4347.42 4347.42,4347.42 865.32,865.25 1071.3,2075.18 303.96,2842.68l-132.11 131.99c-767.37,767.5 -1977.36,561.57 -2842.6,-303.76 0,0 -3253.72,-3253.8 -4338.3,-4338.3 -199.64,-199.64 -436.2,-58.58 -436.2,-58.58 -3273.44,1963.6 -7465.4,1536.81 -10284,-1281.79l0 0.01zm10477.45 -1573.22c2454.9,-2454.9 2454.83,-6449.28 -0.08,-8904.18 -2454.9,-2454.83 -6449.28,-2454.9 -8904.1,0 -2454.9,2454.83 -2454.9,6449.28 0,8904.18 2454.93,2454.78 6449.22,2454.78 8904.18,0z"/>
    <g>
     <path class="fil0" d="M12425.31 8011.47c114.27,0 230.43,-22.45 342.39,-69.75 447.25,-189.29 656.48,-705.31 467.19,-1152.64 -1189.71,-2811.49 -4444.84,-4130.88 -7256.28,-2941.17 -447.25,189.29 -656.48,705.31 -467.19,1152.64 189.36,447.3 705.26,656.43 1152.69,467.19 1918.17,-811.68 4139.27,88.54 4950.87,2006.71 142.01,335.49 467.68,537.02 810.32,537.02l0.01 0z"/>
    </g>
   </g>
  </g>
 </g>
</svg>
