<svg 
 xmlns="http://www.w3.org/2000/svg"
 xmlns:xlink="http://www.w3.org/1999/xlink"
 width="28px" height="29px">
<path fill-rule="evenodd"  fill="rgb(109, 110, 113)"
 d="M3.413,0.606 L0.831,3.206 C-0.595,4.642 0.091,6.356 0.831,8.406 C0.831,8.406 4.381,14.498 8.970,19.120 C13.848,24.034 19.547,27.256 19.547,27.256 C21.430,28.231 23.284,28.692 24.710,27.256 L27.292,24.656 C28.004,23.938 28.157,22.659 27.292,22.056 L22.128,18.156 C21.254,17.560 20.260,17.438 19.547,18.156 L19.547,18.156 L19.547,18.156 L18.020,19.694 C16.229,18.348 14.238,16.709 12.448,14.906 C10.865,13.311 9.458,11.582 8.286,9.997 L9.866,8.406 C10.579,7.688 10.458,6.686 9.866,5.806 L5.994,0.606 C5.281,-0.112 4.125,-0.112 3.413,0.606 M5.915,9.785 L7.989,7.697 C8.443,7.240 8.365,6.603 7.989,6.042 L5.525,2.733 C5.071,2.122 4.336,2.276 3.882,2.733 L2.239,4.388 C1.595,4.998 1.781,6.421 2.122,7.106 C3.646,10.031 7.032,14.536 9.866,17.506 C13.134,21.076 20.838,25.956 20.838,25.956 C21.432,26.271 23.083,26.295 23.537,25.838 L25.179,24.183 C25.519,23.611 25.671,22.947 25.179,22.529 L21.894,20.047 C21.337,19.668 20.705,19.590 20.251,20.047 L18.227,22.085 C17.750,21.747 10.146,16.714 5.915,9.785 Z"/>
</svg>