<svg width="42" height="42" viewBox="0 0 42 42" fill="none" xmlns="http://www.w3.org/2000/svg">
<circle cx="21" cy="21" r="20" fill="white"/>
<path d="M21 40.2C31.6039 40.2 40.2001 31.6039 40.2001 21C40.2001 10.3961 31.6039 1.79999 21 1.79999C10.3962 1.79999 1.80005 10.3961 1.80005 21C1.80005 31.6039 10.3962 40.2 21 40.2Z" stroke="white" stroke-width="2" stroke-miterlimit="10" stroke-linecap="round"/>
<path d="M24.9463 29.4224C24.8295 28.1328 24.8743 27.2328 24.8743 26.0544C25.4583 25.748 26.5047 23.7944 26.6815 22.144C27.1407 22.1064 27.8647 21.6584 28.0767 19.8896C28.1911 18.94 27.7367 18.4056 27.4599 18.2376C28.2071 15.9904 29.7591 9.03841 24.5895 8.32001C24.0575 7.38561 22.6951 6.91281 20.9247 6.91281C13.8415 7.04321 12.9871 12.2616 14.5399 18.2376C14.2639 18.4056 13.8095 18.94 13.9231 19.8896C14.1359 21.6584 14.8591 22.1064 15.3183 22.144C15.4943 23.7936 16.5823 25.748 17.1679 26.0544C17.1679 27.2328 17.2119 28.1328 17.0951 29.4224C16.0863 32.1344 10.9055 32.3464 7.91675 34.9616C11.0415 38.108 16.1055 40.3584 21.4495 40.3584C26.7935 40.3584 33.0751 36.1392 34.1207 34.988C31.1503 32.3488 25.9575 32.144 24.9463 29.4224Z" fill="black"/>
</svg>
